<svg width="560" height="560" viewBox="0 0 560 560" fill="none" xmlns="http://www.w3.org/2000/svg">
	<path d="M472.502 231.582C464.928 233.005 460.708 234.886 456.844 238.547C451.506 243.58 449.219 252.07 450.49 262.034C451.557 270.88 454.404 275.303 460.81 278.353C466.554 281.047 468.283 281.403 493.448 284.708C507.174 286.538 510.58 287.351 513.02 289.283C516.122 291.774 516.782 293.503 516.986 299.552C517.24 306.161 516.427 309.517 513.732 312.618C510.275 316.634 505.649 318.108 494.414 318.617C485.466 319.023 475.502 318.21 471.486 316.736C465.639 314.55 462.437 309.517 461.826 301.433L461.521 297.468H448.304L448.609 302.654C449.625 318.667 456.183 325.887 471.791 328.225C478.451 329.242 500.311 329.242 506.971 328.225C524.408 325.632 532.085 316.024 531.119 297.976C530.458 284.86 525.781 279.014 513.427 275.913C510.784 275.201 502.243 273.828 494.414 272.812C478.247 270.727 472.655 269.812 470.164 268.745C465.182 266.66 463.453 263.102 463.809 255.577C463.962 251.612 464.216 250.545 465.385 248.511C468.385 243.376 472.604 242.055 486.534 241.699C497.616 241.394 502.497 241.953 507.072 243.936C512.004 246.172 514.8 250.392 515.41 256.543L515.715 259.848H529.339L529.034 256.137C528.018 244.902 524.306 238.598 516.427 234.683C510.275 231.633 507.479 231.277 490.906 231.074C480.128 230.972 475.197 231.124 472.502 231.582Z" fill="#007DBE"/>
	<path d="M196.299 279.929V327.971H267.981V316.278H209.517V231.887H196.299V279.929Z" fill="#007DBE"/>
	<path d="M285.775 279.929V327.971H298.992V231.887H285.775V279.929Z" fill="#007DBE"/>
	<path d="M322.378 279.929V327.971H335.087L334.986 287.301C334.884 264.932 335.036 246.681 335.24 246.783C335.494 246.834 340.425 258.475 346.221 272.558C352.067 286.691 359.591 304.84 362.947 312.974L369.047 327.717L375.656 327.869L382.214 328.022L383.282 325.582C383.841 324.26 391.314 306.212 399.906 285.521C408.497 264.83 415.716 247.545 415.971 247.139C416.225 246.681 416.428 263.407 416.428 287.148V327.971H429.138V231.887L419.123 231.989L409.107 232.141L392.687 271.795C383.638 293.605 376.063 311.601 375.859 311.805C375.656 312.008 368.081 294.062 359.032 271.998L342.51 231.887H322.378V279.929Z" fill="#007DBE"/>
	<path d="M27.1105 260.102C21.6709 261.627 18.6714 263.813 15.672 268.338L13.5368 271.592L13.3843 265.745L13.2318 259.848H1.58984V327.971H14.2485L14.401 304.687L14.5535 281.454L15.977 278.556C19.0781 272.303 24.9753 269.101 32.5502 269.609C38.905 270.067 42.2094 272.558 44.1921 278.506C44.853 280.59 45.0055 284.454 45.2089 304.433L45.3614 327.971H57.9692L58.1217 304.941L58.2743 281.963L59.596 279.167C61.4262 275.252 63.6631 272.863 67.0692 271.185C69.6111 269.914 70.5262 269.761 74.7966 269.761C79.067 269.761 80.0329 269.965 82.1173 270.982C84.71 272.253 86.9469 275.15 88.1162 278.658C88.5229 279.878 88.7771 288.012 88.8787 304.179L89.0821 327.971H101.741V304.687C101.741 291.927 101.487 279.929 101.232 278.048C99.9106 269.05 96.0977 263.559 89.1329 260.763C86.591 259.746 85.3709 259.594 78.8637 259.594C72.4072 259.645 71.1363 259.797 68.5435 260.814C64.324 262.492 61.1212 265.237 58.8335 269.151C57.7659 271.032 56.7491 272.558 56.5458 272.558C56.3932 272.558 55.7832 271.49 55.2748 270.117C53.8513 266.66 49.3268 262.39 45.5647 260.916C41.6502 259.34 31.3809 258.933 27.1105 260.102Z" fill="#007DBE"/>
	<path d="M113.434 263.254C114.247 265.186 120.958 280.539 128.38 297.418L141.852 328.124L139.412 333.258C135.497 341.596 132.803 343.833 125.991 344.544L122.584 344.9V354.407H126.041C130.871 354.407 136.006 353.543 138.853 352.323C143.479 350.34 148.105 344.188 152.477 334.275C154.002 330.818 179.574 270.626 183.438 261.475L184.149 259.797L177.693 259.95L171.287 260.102L164.78 276.269C161.17 285.115 156.137 297.977 153.545 304.84C151.003 311.703 148.766 317.295 148.563 317.295C148.41 317.295 146.58 312.974 144.496 307.738C140.022 296.452 125.991 262.492 125.177 260.916C124.618 259.899 124.211 259.848 118.263 259.848H111.959L113.434 263.254Z" fill="#007DBE"/>
	<path d="M530.061 222.294C534.742 222.294 538.536 218.499 538.536 213.819C538.536 209.138 534.742 205.344 530.061 205.344C525.381 205.344 521.587 209.138 521.587 213.819C521.587 218.499 525.381 222.294 530.061 222.294Z" fill="#FF8A00"/>
	<path d="M551.525 222.294C556.205 222.294 560 218.499 560 213.819C560 209.138 556.205 205.344 551.525 205.344C546.845 205.344 543.05 209.138 543.05 213.819C543.05 218.499 546.845 222.294 551.525 222.294Z" fill="#FF8A00"/>
	<path d="M551.525 243.193C556.205 243.193 560 239.399 560 234.718C560 230.038 556.205 226.244 551.525 226.244C546.845 226.244 543.05 230.038 543.05 234.718C543.05 239.399 546.845 243.193 551.525 243.193Z" fill="#FF8A00"/>
</svg>
